<?xml version="1.0" encoding="UTF-8" standalone="no"?>
<!DOCTYPE svg PUBLIC "-//W3C//DTD SVG 1.1//EN" "http://www.w3.org/Graphics/SVG/1.1/DTD/svg11.dtd">
<svg width="100%" height="100%" viewBox="0 0 2363 2363" version="1.1" xmlns="http://www.w3.org/2000/svg" xmlns:xlink="http://www.w3.org/1999/xlink" xml:space="preserve" xmlns:serif="http://www.serif.com/" style="fill-rule:evenodd;clip-rule:evenodd;stroke-linecap:round;stroke-linejoin:round;stroke-miterlimit:1.5;">
    <g id="order" transform="matrix(0.925494,0,0,0.925494,-45.0996,539.041)">
        <g transform="matrix(2.55135e-16,4.16667,-4.16667,2.55135e-16,1660.33,-804.167)">
            <path d="M359.5,215L417.957,248.75L417.957,316.25L359.5,350L301.043,316.25L301.043,248.75L359.5,215Z" style="fill:rgb(219,219,219);stroke:black;stroke-width:5.4px;"/>
        </g>
        <g transform="matrix(2.55135e-16,4.16667,-4.16667,2.55135e-16,1660.33,-1291.31)">
            <path d="M359.5,215L417.957,248.75L417.957,316.25L359.5,350L301.043,316.25L301.043,248.75L359.5,215Z" style="fill:rgb(219,219,219);stroke:black;stroke-width:5.4px;"/>
        </g>
        <g transform="matrix(2.55135e-16,4.16667,-4.16667,2.55135e-16,1660.33,-317.027)">
            <path d="M359.5,215L417.957,248.75L417.957,316.25L359.5,350L301.043,316.25L301.043,248.75L359.5,215Z" style="fill:rgb(219,219,219);stroke:black;stroke-width:5.4px;"/>
        </g>
        <g transform="matrix(2.55135e-16,4.16667,-4.16667,2.55135e-16,3343.67,-804.167)">
            <path d="M359.5,215L417.957,248.75L417.957,316.25L359.5,350L301.043,316.25L301.043,248.75L359.5,215Z" style="fill:rgb(219,219,219);stroke:black;stroke-width:5.4px;"/>
        </g>
        <g transform="matrix(2.55135e-16,4.16667,-4.16667,2.55135e-16,3343.67,-317.027)">
            <path d="M359.5,215L417.957,248.75L417.957,316.25L359.5,350L301.043,316.25L301.043,248.75L359.5,215Z" style="fill:rgb(219,219,219);stroke:black;stroke-width:5.4px;"/>
        </g>
        <g transform="matrix(2.55135e-16,4.16667,-4.16667,2.55135e-16,2085.33,-73.4577)">
            <path d="M359.5,215L417.957,248.75L417.957,316.25L359.5,350L301.043,316.25L301.043,248.75L359.5,215Z" style="fill:rgb(219,219,219);stroke:black;stroke-width:5.4px;"/>
        </g>
        <g transform="matrix(2.55135e-16,4.16667,-4.16667,2.55135e-16,2922.83,-73.4577)">
            <path d="M359.5,215L417.957,248.75L417.957,316.25L359.5,350L301.043,316.25L301.043,248.75L359.5,215Z" style="fill:rgb(219,219,219);stroke:black;stroke-width:5.4px;"/>
        </g>
        <g transform="matrix(2.55135e-16,4.16667,-4.16667,2.55135e-16,2514.5,170.112)">
            <path d="M359.5,215L417.957,248.75L417.957,316.25L359.5,350L301.043,316.25L301.043,248.75L359.5,215Z" style="fill:rgb(219,219,219);stroke:black;stroke-width:5.4px;"/>
        </g>
        <g transform="matrix(2.55135e-16,4.16667,-4.16667,2.55135e-16,3343.67,-1291.31)">
            <path d="M359.5,215L417.957,248.75L417.957,316.25L359.5,350L301.043,316.25L301.043,248.75L359.5,215Z" style="fill:rgb(219,219,219);stroke:black;stroke-width:5.4px;"/>
        </g>
        <g transform="matrix(2.55135e-16,4.16667,-4.16667,2.55135e-16,2922.83,-1534.88)">
            <path d="M359.5,215L417.957,248.75L417.957,316.25L359.5,350L301.043,316.25L301.043,248.75L359.5,215Z" style="fill:rgb(219,219,219);stroke:black;stroke-width:5.4px;"/>
        </g>
        <g transform="matrix(2.55135e-16,4.16667,-4.16667,2.55135e-16,2514.5,-1778.45)">
            <path d="M359.5,215L417.957,248.75L417.957,316.25L359.5,350L301.043,316.25L301.043,248.75L359.5,215Z" style="fill:rgb(219,219,219);stroke:black;stroke-width:5.4px;"/>
        </g>
        <g transform="matrix(2.55135e-16,4.16667,-4.16667,2.55135e-16,2085.33,-1047.74)">
            <path d="M359.5,215L417.957,248.75L417.957,316.25L359.5,350L301.043,316.25L301.043,248.75L359.5,215Z" style="fill:white;stroke:black;stroke-width:5.4px;"/>
        </g>
        <g transform="matrix(2.55135e-16,4.16667,-4.16667,2.55135e-16,2085.33,-1534.88)">
            <path d="M359.5,215L417.957,248.75L417.957,316.25L359.5,350L301.043,316.25L301.043,248.75L359.5,215Z" style="fill:rgb(219,219,219);stroke:black;stroke-width:5.4px;"/>
        </g>
        <g transform="matrix(2.55135e-16,4.16667,-4.16667,2.55135e-16,2085.33,-560.597)">
            <path d="M359.5,215L417.957,248.75L417.957,316.25L359.5,350L301.043,316.25L301.043,248.75L359.5,215Z" style="fill:white;stroke:black;stroke-width:5.4px;"/>
        </g>
        <g transform="matrix(2.55135e-16,4.16667,-4.16667,2.55135e-16,2922.83,-1047.74)">
            <path d="M359.5,215L417.957,248.75L417.957,316.25L359.5,350L301.043,316.25L301.043,248.75L359.5,215Z" style="fill:white;stroke:black;stroke-width:5.4px;"/>
        </g>
        <g transform="matrix(2.55135e-16,4.16667,-4.16667,2.55135e-16,2922.83,-560.597)">
            <path d="M359.5,215L417.957,248.75L417.957,316.25L359.5,350L301.043,316.25L301.043,248.75L359.5,215Z" style="fill:white;stroke:black;stroke-width:5.4px;"/>
        </g>
        <g transform="matrix(2.55135e-16,4.16667,-4.16667,2.55135e-16,2514.5,-1291.31)">
            <path d="M359.5,215L417.957,248.75L417.957,316.25L359.5,350L301.043,316.25L301.043,248.75L359.5,215Z" style="fill:white;stroke:black;stroke-width:5.4px;"/>
        </g>
        <g transform="matrix(2.55135e-16,4.16667,-4.16667,2.55135e-16,2514.5,-804.167)">
            <path d="M359.5,215L417.957,248.75L417.957,316.25L359.5,350L301.043,316.25L301.043,248.75L359.5,215Z" style="fill:white;stroke:black;stroke-width:5.4px;"/>
        </g>
        <g transform="matrix(2.55135e-16,4.16667,-4.16667,2.55135e-16,2514.5,-317.027)">
            <path d="M359.5,215L417.957,248.75L417.957,316.25L359.5,350L301.043,316.25L301.043,248.75L359.5,215Z" style="fill:white;stroke:black;stroke-width:5.4px;"/>
        </g>
        <g transform="matrix(4.16667,0,0,4.16667,-992.329,-497.013)">
            <text x="640px" y="136px" style="font-family:'ArialMT', 'Arial', sans-serif;font-size:71.198px;">1</text>
        </g>
        <g transform="matrix(4.16667,0,0,4.16667,-992.329,-9.87418)">
            <text x="640px" y="136px" style="font-family:'ArialMT', 'Arial', sans-serif;font-size:71.198px;">1</text>
        </g>
        <g transform="matrix(4.16667,0,0,4.16667,-579.234,233.695)">
            <text x="640px" y="136px" style="font-family:'ArialMT', 'Arial', sans-serif;font-size:71.198px;">3</text>
        </g>
        <g transform="matrix(4.16667,0,0,4.16667,-1411.24,718.952)">
            <text x="640px" y="136px" style="font-family:'ArialMT', 'Arial', sans-serif;font-size:71.198px;">3</text>
        </g>
        <g transform="matrix(4.16667,0,0,4.16667,-579.234,720.835)">
            <text x="640px" y="136px" style="font-family:'ArialMT', 'Arial', sans-serif;font-size:71.198px;">4</text>
        </g>
        <g transform="matrix(4.16667,0,0,4.16667,-1835.62,476.831)">
            <text x="640px" y="136px" style="font-family:'ArialMT', 'Arial', sans-serif;font-size:71.198px;">4</text>
        </g>
        <g transform="matrix(4.16667,0,0,4.16667,-579.234,-253.444)">
            <text x="640px" y="136px" style="font-family:'ArialMT', 'Arial', sans-serif;font-size:71.198px;">2</text>
        </g>
        <g transform="matrix(4.16667,0,0,4.16667,-1000.07,477.265)">
            <text x="640px" y="136px" style="font-family:'ArialMT', 'Arial', sans-serif;font-size:71.198px;">2</text>
        </g>
        <g transform="matrix(4.16667,0,0,4.16667,-1000.07,964.404)">
            <text x="640px" y="136px" style="font-family:'ArialMT', 'Arial', sans-serif;font-size:71.198px;">5</text>
        </g>
        <g transform="matrix(4.16667,0,0,4.16667,-1841.13,-13.5679)">
            <text x="640px" y="136px" style="font-family:'ArialMT', 'Arial', sans-serif;font-size:71.198px;">5</text>
        </g>
        <g transform="matrix(4.16667,0,0,4.16667,-1408.4,1207.97)">
            <text x="640px" y="136px" style="font-family:'ArialMT', 'Arial', sans-serif;font-size:71.198px;">6</text>
        </g>
        <g transform="matrix(4.16667,0,0,4.16667,-1410.51,231.885)">
            <text x="640px" y="136px" style="font-family:'ArialMT', 'Arial', sans-serif;font-size:71.198px;">6</text>
        </g>
        <g transform="matrix(4.16667,0,0,4.16667,-1837.57,964.404)">
            <text x="640px" y="136px" style="font-family:'ArialMT', 'Arial', sans-serif;font-size:71.198px;">7</text>
        </g>
        <g transform="matrix(4.16667,0,0,4.16667,-2262.57,720.835)">
            <text x="640px" y="136px" style="font-family:'ArialMT', 'Arial', sans-serif;font-size:71.198px;">8</text>
        </g>
        <g transform="matrix(4.16667,0,0,4.16667,-2262.57,233.695)">
            <text x="640px" y="136px" style="font-family:'ArialMT', 'Arial', sans-serif;font-size:71.198px;">9</text>
        </g>
        <g transform="matrix(4.16667,0,0,4.16667,-2354.48,-255.254)">
            <text x="640px" y="136px" style="font-family:'ArialMT', 'Arial', sans-serif;font-size:71.198px;">10</text>
        </g>
        <g transform="matrix(4.16667,0,0,4.16667,-1901.31,-497.013)">
            <text x="640px" y="136px" style="font-family:'ArialMT', 'Arial', sans-serif;font-size:71.198px;">1<tspan x="674.313px " y="136px ">1</tspan></text>
        </g>
        <g transform="matrix(4.16667,0,0,4.16667,-1408.4,-740.583)">
            <text x="640px" y="136px" style="font-family:'ArialMT', 'Arial', sans-serif;font-size:71.198px;">0</text>
        </g>
        <g transform="matrix(4.16667,0,0,4.16667,-1408.4,-255.254)">
            <text x="640px" y="136px" style="font-family:'ArialMT', 'Arial', sans-serif;font-size:71.198px;">0</text>
        </g>
    </g>
</svg>
