<?xml version="1.0" encoding="UTF-8" standalone="no"?>
<!DOCTYPE svg PUBLIC "-//W3C//DTD SVG 1.1//EN" "http://www.w3.org/Graphics/SVG/1.1/DTD/svg11.dtd">
<svg width="100%" height="100%" viewBox="0 0 513 556" version="1.1" xmlns="http://www.w3.org/2000/svg" xmlns:xlink="http://www.w3.org/1999/xlink" xml:space="preserve" xmlns:serif="http://www.serif.com/" style="fill-rule:evenodd;clip-rule:evenodd;stroke-linecap:round;stroke-linejoin:round;stroke-miterlimit:1.5;">
    <g transform="matrix(1,0,0,1,-137.683,-1756.92)">
        <g>
            <g transform="matrix(5.73109e-17,0.935959,-0.935959,5.73109e-17,469.436,1698.17)">
                <path d="M359.5,215L417.957,248.75L417.957,316.25L359.5,350L301.043,316.25L301.043,248.75L359.5,215Z" style="fill:rgb(219,219,219);stroke:black;stroke-width:8.9px;"/>
            </g>
            <g transform="matrix(5.73109e-17,0.935959,-0.935959,5.73109e-17,469.436,1588.74)">
                <path d="M359.5,215L417.957,248.75L417.957,316.25L359.5,350L301.043,316.25L301.043,248.75L359.5,215Z" style="fill:rgb(219,219,219);stroke:black;stroke-width:8.9px;"/>
            </g>
            <g transform="matrix(5.73109e-17,0.935959,-0.935959,5.73109e-17,469.436,1807.6)">
                <path d="M359.5,215L417.957,248.75L417.957,316.25L359.5,350L301.043,316.25L301.043,248.75L359.5,215Z" style="fill:rgb(219,219,219);stroke:black;stroke-width:8.9px;"/>
            </g>
            <g transform="matrix(5.73109e-17,0.935959,-0.935959,5.73109e-17,847.563,1698.17)">
                <path d="M359.5,215L417.957,248.75L417.957,316.25L359.5,350L301.043,316.25L301.043,248.75L359.5,215Z" style="fill:rgb(219,219,219);stroke:black;stroke-width:8.9px;"/>
            </g>
            <g transform="matrix(5.73109e-17,0.935959,-0.935959,5.73109e-17,847.563,1807.6)">
                <path d="M359.5,215L417.957,248.75L417.957,316.25L359.5,350L301.043,316.25L301.043,248.75L359.5,215Z" style="fill:rgb(219,219,219);stroke:black;stroke-width:8.9px;"/>
            </g>
            <g transform="matrix(5.73109e-17,0.935959,-0.935959,5.73109e-17,564.903,1862.31)">
                <path d="M359.5,215L417.957,248.75L417.957,316.25L359.5,350L301.043,316.25L301.043,248.75L359.5,215Z" style="fill:rgb(219,219,219);stroke:black;stroke-width:8.9px;"/>
            </g>
            <g transform="matrix(5.73109e-17,0.935959,-0.935959,5.73109e-17,753.031,1862.31)">
                <path d="M359.5,215L417.957,248.75L417.957,316.25L359.5,350L301.043,316.25L301.043,248.75L359.5,215Z" style="fill:rgb(219,219,219);stroke:black;stroke-width:8.9px;"/>
            </g>
            <g transform="matrix(5.73109e-17,0.935959,-0.935959,5.73109e-17,661.307,1917.02)">
                <path d="M359.5,215L417.957,248.75L417.957,316.25L359.5,350L301.043,316.25L301.043,248.75L359.5,215Z" style="fill:rgb(219,219,219);stroke:black;stroke-width:8.9px;"/>
            </g>
            <g transform="matrix(5.73109e-17,0.935959,-0.935959,5.73109e-17,847.563,1588.74)">
                <path d="M359.5,215L417.957,248.75L417.957,316.25L359.5,350L301.043,316.25L301.043,248.75L359.5,215Z" style="fill:rgb(219,219,219);stroke:black;stroke-width:8.9px;"/>
            </g>
            <g transform="matrix(5.73109e-17,0.935959,-0.935959,5.73109e-17,753.031,1534.03)">
                <path d="M359.5,215L417.957,248.75L417.957,316.25L359.5,350L301.043,316.25L301.043,248.75L359.5,215Z" style="fill:rgb(219,219,219);stroke:black;stroke-width:8.9px;"/>
            </g>
            <g transform="matrix(5.73109e-17,0.935959,-0.935959,5.73109e-17,661.307,1479.32)">
                <path d="M359.5,215L417.957,248.75L417.957,316.25L359.5,350L301.043,316.25L301.043,248.75L359.5,215Z" style="fill:rgb(219,219,219);stroke:black;stroke-width:8.9px;"/>
            </g>
            <g transform="matrix(5.73109e-17,0.935959,-0.935959,5.73109e-17,564.903,1643.46)">
                <path d="M359.5,215L417.957,248.75L417.957,316.25L359.5,350L301.043,316.25L301.043,248.75L359.5,215Z" style="fill:white;stroke:black;stroke-width:8.9px;"/>
            </g>
            <g transform="matrix(5.73109e-17,0.935959,-0.935959,5.73109e-17,564.903,1534.03)">
                <path d="M359.5,215L417.957,248.75L417.957,316.25L359.5,350L301.043,316.25L301.043,248.75L359.5,215Z" style="fill:rgb(219,219,219);stroke:black;stroke-width:8.9px;"/>
            </g>
            <g transform="matrix(5.73109e-17,0.935959,-0.935959,5.73109e-17,564.903,1752.88)">
                <path d="M359.5,215L417.957,248.75L417.957,316.25L359.5,350L301.043,316.25L301.043,248.75L359.5,215Z" style="fill:white;stroke:black;stroke-width:8.9px;"/>
            </g>
            <g transform="matrix(5.73109e-17,0.935959,-0.935959,5.73109e-17,753.031,1643.46)">
                <path d="M359.5,215L417.957,248.75L417.957,316.25L359.5,350L301.043,316.25L301.043,248.75L359.5,215Z" style="fill:white;stroke:black;stroke-width:8.9px;"/>
            </g>
            <g transform="matrix(5.73109e-17,0.935959,-0.935959,5.73109e-17,753.031,1752.88)">
                <path d="M359.5,215L417.957,248.75L417.957,316.25L359.5,350L301.043,316.25L301.043,248.75L359.5,215Z" style="fill:white;stroke:black;stroke-width:8.9px;"/>
            </g>
            <g transform="matrix(5.73109e-17,0.935959,-0.935959,5.73109e-17,661.307,1588.74)">
                <path d="M359.5,215L417.957,248.75L417.957,316.25L359.5,350L301.043,316.25L301.043,248.75L359.5,215Z" style="fill:white;stroke:black;stroke-width:8.9px;"/>
            </g>
            <g transform="matrix(5.73109e-17,0.935959,-0.935959,5.73109e-17,661.307,1698.17)">
                <path d="M359.5,215L417.957,248.75L417.957,316.25L359.5,350L301.043,316.25L301.043,248.75L359.5,215Z" style="fill:white;stroke:black;stroke-width:8.9px;"/>
            </g>
            <g transform="matrix(5.73109e-17,0.935959,-0.935959,5.73109e-17,661.307,1807.6)">
                <path d="M359.5,215L417.957,248.75L417.957,316.25L359.5,350L301.043,316.25L301.043,248.75L359.5,215Z" style="fill:white;stroke:black;stroke-width:8.9px;"/>
            </g>
        </g>
        <g id="order" transform="matrix(0.242714,0,0,0.242714,107.421,1747.98)">
            <g transform="matrix(3.85622,0,0,3.85622,-963.494,79.0583)">
                <text x="640px" y="136px" style="font-family:'ArialMT', 'Arial', sans-serif;font-size:71.198px;">1</text>
            </g>
            <g transform="matrix(3.85622,0,0,3.85622,-963.494,529.903)">
                <text x="640px" y="136px" style="font-family:'ArialMT', 'Arial', sans-serif;font-size:71.198px;">1</text>
            </g>
            <g transform="matrix(3.85622,0,0,3.85622,-581.177,755.325)">
                <text x="640px" y="136px" style="font-family:'ArialMT', 'Arial', sans-serif;font-size:71.198px;">3</text>
            </g>
            <g transform="matrix(3.85622,0,0,3.85622,-1351.19,1204.43)">
                <text x="640px" y="136px" style="font-family:'ArialMT', 'Arial', sans-serif;font-size:71.198px;">3</text>
            </g>
            <g transform="matrix(3.85622,0,0,3.85622,-581.177,1206.17)">
                <text x="640px" y="136px" style="font-family:'ArialMT', 'Arial', sans-serif;font-size:71.198px;">4</text>
            </g>
            <g transform="matrix(3.85622,0,0,3.85622,-1743.96,980.345)">
                <text x="640px" y="136px" style="font-family:'ArialMT', 'Arial', sans-serif;font-size:71.198px;">4</text>
            </g>
            <g transform="matrix(3.85622,0,0,3.85622,-581.177,304.48)">
                <text x="640px" y="136px" style="font-family:'ArialMT', 'Arial', sans-serif;font-size:71.198px;">2</text>
            </g>
            <g transform="matrix(3.85622,0,0,3.85622,-970.656,980.747)">
                <text x="640px" y="136px" style="font-family:'ArialMT', 'Arial', sans-serif;font-size:71.198px;">2</text>
            </g>
            <g transform="matrix(3.85622,0,0,3.85622,-970.656,1431.59)">
                <text x="640px" y="136px" style="font-family:'ArialMT', 'Arial', sans-serif;font-size:71.198px;">5</text>
            </g>
            <g transform="matrix(3.85622,0,0,3.85622,-1749.05,526.484)">
                <text x="640px" y="136px" style="font-family:'ArialMT', 'Arial', sans-serif;font-size:71.198px;">5</text>
            </g>
            <g transform="matrix(3.85622,0,0,3.85622,-1348.57,1657.01)">
                <text x="640px" y="136px" style="font-family:'ArialMT', 'Arial', sans-serif;font-size:71.198px;">6</text>
            </g>
            <g transform="matrix(3.85622,0,0,3.85622,-1350.52,753.649)">
                <text x="640px" y="136px" style="font-family:'ArialMT', 'Arial', sans-serif;font-size:71.198px;">6</text>
            </g>
            <g transform="matrix(3.85622,0,0,3.85622,-1745.76,1431.59)">
                <text x="640px" y="136px" style="font-family:'ArialMT', 'Arial', sans-serif;font-size:71.198px;">7</text>
            </g>
            <g transform="matrix(3.85622,0,0,3.85622,-2139.09,1206.17)">
                <text x="640px" y="136px" style="font-family:'ArialMT', 'Arial', sans-serif;font-size:71.198px;">8</text>
            </g>
            <g transform="matrix(3.85622,0,0,3.85622,-2139.09,755.325)">
                <text x="640px" y="136px" style="font-family:'ArialMT', 'Arial', sans-serif;font-size:71.198px;">9</text>
            </g>
            <g transform="matrix(3.85622,0,0,3.85622,-2224.15,302.805)">
                <text x="640px" y="136px" style="font-family:'ArialMT', 'Arial', sans-serif;font-size:71.198px;">10</text>
            </g>
            <g transform="matrix(3.85622,0,0,3.85622,-1804.75,79.0583)">
                <text x="640px" y="136px" style="font-family:'ArialMT', 'Arial', sans-serif;font-size:71.198px;">1<tspan x="674.313px " y="136px ">1</tspan></text>
            </g>
            <g transform="matrix(3.85622,0,0,3.85622,-1348.57,-146.364)">
                <text x="640px" y="136px" style="font-family:'ArialMT', 'Arial', sans-serif;font-size:71.198px;">0</text>
            </g>
            <g transform="matrix(3.85622,0,0,3.85622,-1348.57,302.805)">
                <text x="640px" y="136px" style="font-family:'ArialMT', 'Arial', sans-serif;font-size:71.198px;">0</text>
            </g>
        </g>
    </g>
</svg>
